<?xml version="1.0" standalone="no"?>
<!DOCTYPE svg PUBLIC "-//W3C//DTD SVG 20010904//EN" "http://www.w3.org/TR/2001/REC-SVG-20010904/DTD/svg10.dtd">
<svg version="1.0" xmlns="http://www.w3.org/2000/svg" width="240.000000pt" height="240.000000pt"
    viewBox="0 0 240.000000 240.000000" preserveAspectRatio="xMidYMid meet">
    <metadata>
        Created by potrace 1.14, written by Peter Selinger 2001-2017
    </metadata>
    <g transform="translate(0.000000,240.000000) scale(0.100000,-0.100000)" fill="#000000" stroke="none">
        <path d="M1004 2384 c-248 -41 -467 -155 -649 -338 -186 -187 -294 -393 -339
-647 -19 -109 -15 -336 8 -443 84 -386 346 -704 707 -859 153 -66 169 -54 169
119 l0 119 -117 0 c-102 0 -124 3 -158 21 -65 35 -101 74 -139 151 -35 71 -83
128 -140 169 -22 15 -28 25 -23 38 6 16 16 18 57 14 64 -6 118 -42 171 -115
55 -75 94 -108 142 -123 37 -11 96 -14 127 -7 83 19 78 15 100 82 11 34 30 71
41 81 20 18 18 19 -83 41 -299 66 -439 243 -441 558 0 123 19 192 76 278 l42
62 -12 59 c-13 66 -11 131 7 196 14 54 26 70 48 66 9 -2 35 -7 57 -10 43 -8
146 -54 209 -93 35 -23 42 -24 85 -13 133 34 356 34 502 1 45 -10 49 -9 122
33 112 63 235 98 257 72 31 -38 44 -200 22 -281 -7 -25 -3 -37 25 -76 66 -92
92 -191 86 -328 -12 -292 -156 -463 -442 -523 l-100 -21 25 -33 c44 -57 54
-120 54 -340 0 -182 2 -202 18 -217 25 -22 50 -21 119 5 229 85 461 281 591
499 72 121 136 291 156 414 14 83 14 311 1 395 -80 504 -478 906 -985 993
-103 18 -291 19 -396 1z" />
    </g>
</svg>